<svg width="75" height="40" viewBox="0 0 75 40" fill="none" xmlns="http://www.w3.org/2000/svg">
<rect width="75" height="39.9836" fill="white"/>
<path d="M19.5147 24.1321C19.5147 23.495 19.5216 21.7923 19.5059 21.5825C19.5196 19.0487 17.6774 17.2614 16.5135 17.4007C15.7082 17.4706 15.0332 17.799 14.6708 18.7437C14.3349 19.6241 14.6352 20.7951 15.752 21.0699C16.9461 21.365 17.6434 21.6106 18.148 21.957C18.7663 22.381 19.2711 23.1913 19.2845 24.1331" fill="#00529C"/>
<path d="M19.9913 27.9836C17.8858 27.9836 15.722 27.465 13.561 26.4393L13.508 26.4132L13.4826 26.3592C12.5128 24.3122 12 22.0732 12 19.8827C12 17.6955 12.4918 15.5524 13.4623 13.5081L13.4889 13.4538L13.543 13.4267C15.542 12.4797 17.6925 12 19.9366 12C22.0271 12 24.2597 12.534 26.392 13.547L26.4468 13.5714L26.472 13.6267C27.4603 15.7114 27.9815 17.9498 27.9815 20.104C27.9815 22.2499 27.4811 24.3949 26.4916 26.4783L26.4655 26.5331L26.4105 26.5585C24.442 27.4903 22.2221 27.9836 19.9913 27.9836ZM13.761 26.1586C15.8603 27.1461 17.954 27.6448 19.9913 27.6448C22.1516 27.6448 24.3001 27.1726 26.2125 26.2775C27.1625 24.2586 27.6441 22.1807 27.6441 20.104C27.6441 18.019 27.1415 15.8501 26.1907 13.8267C24.1214 12.8539 21.9603 12.338 19.9366 12.338C17.7639 12.338 15.6815 12.7989 13.7428 13.708C12.8123 15.6894 12.3386 17.7657 12.3386 19.8827C12.3386 22.0038 12.8308 24.1736 13.761 26.1586Z" fill="#00529C"/>
<path d="M19.0157 24.1331C19.0196 23.3165 18.5638 22.5944 17.9681 22.2064C17.4397 21.8635 16.7303 21.6381 15.5859 21.3479C15.2322 21.2574 14.8622 21.0564 14.7476 20.8002C14.4446 21.1055 14.3895 21.792 14.4428 22.1931C14.5048 22.6574 15.0473 23.4226 15.8642 23.4525C16.363 23.4726 16.9937 23.3452 17.2962 23.2809C17.818 23.1682 18.6435 23.495 18.7749 24.1321" fill="#00529C"/>
<path d="M19.9366 13.4518C18.5516 13.4518 17.3551 14.3652 17.3595 15.9458C17.3638 17.2749 18.4327 17.9864 18.8141 18.4947C19.3905 19.2605 19.7024 20.167 19.7349 21.5541C19.7601 22.658 19.7588 23.7481 19.7644 24.1344H20.0702C20.0648 23.7302 20.051 22.573 20.0669 21.5199C20.0876 20.1324 20.4108 19.2605 20.9875 18.4947C21.3722 17.9864 22.4402 17.2749 22.4425 15.9458C22.4477 14.3652 21.252 13.4518 19.8681 13.4518" fill="#00529C"/>
<path d="M20.2882 24.1321C20.2882 23.495 20.281 21.7923 20.2965 21.5825C20.2829 19.0487 22.124 17.2614 23.2889 17.4007C24.0942 17.4706 24.7684 17.799 25.1318 18.7437C25.4674 19.6241 25.1654 20.7951 24.05 21.0699C22.8553 21.365 22.1589 21.6106 21.653 21.957C21.0354 22.381 20.5659 23.1913 20.5515 24.1331" fill="#00529C"/>
<path d="M20.7868 24.1331C20.7825 23.3165 21.2381 22.5944 21.8321 22.2064C22.3626 21.8635 23.0729 21.6381 24.2163 21.3479C24.5707 21.2574 24.9404 21.0564 25.0529 20.8002C25.3574 21.1055 25.4123 21.792 25.3589 22.1931C25.2957 22.6574 24.7546 23.4226 23.9392 23.4525C23.4405 23.4726 22.8065 23.3452 22.5053 23.2809C21.9855 23.1682 21.1577 23.495 21.0257 24.1321" fill="#00529C"/>
<path d="M21.2141 26.7693L21.0369 25.476L21.4647 25.4112C21.5689 25.3969 21.6957 25.4151 21.7464 25.4804C21.8025 25.5485 21.8196 25.6049 21.8304 25.6942C21.8466 25.8047 21.8146 25.9325 21.6901 25.9962V26.0001C21.8291 26.0001 21.9131 26.1 21.9375 26.2686C21.9411 26.3041 21.9516 26.3902 21.9411 26.4619C21.9129 26.6327 21.811 26.6876 21.6391 26.7116L21.2141 26.7693ZM21.4895 26.5377C21.5402 26.5305 21.5917 26.5278 21.6319 26.5021C21.6934 26.4619 21.6878 26.3759 21.6793 26.3121C21.6578 26.1717 21.6212 26.1184 21.4724 26.1405L21.3788 26.1549L21.4381 26.5449L21.4895 26.5377ZM21.3999 25.9402C21.4565 25.931 21.5333 25.9242 21.5653 25.8704C21.582 25.8346 21.6035 25.806 21.5894 25.7262C21.5719 25.6315 21.5405 25.5729 21.4203 25.5956L21.3084 25.6137L21.3525 25.9451" fill="#00529C"/>
<path d="M23.0673 25.9915C23.0707 26.0155 23.0746 26.0423 23.076 26.0664C23.1106 26.3023 23.0673 26.4975 22.8022 26.5513C22.4103 26.6268 22.3352 26.3833 22.2662 26.0423L22.2294 25.8579C22.1754 25.5317 22.1522 25.2847 22.5343 25.2086C22.7498 25.1693 22.8921 25.255 22.9513 25.4694C22.9606 25.5014 22.9721 25.5331 22.9764 25.5652L22.742 25.6137C22.7149 25.5331 22.679 25.3892 22.5735 25.4013C22.3842 25.424 22.4467 25.6596 22.4662 25.758L22.5366 26.1121C22.5578 26.2191 22.5999 26.3902 22.7637 26.3572C22.8967 26.3305 22.8388 26.1233 22.827 26.0385" fill="#00529C"/>
<path d="M23.4436 26.3828L23.3625 25.0445L23.6775 24.9484L24.3378 26.1124L24.0899 26.1866L23.9334 25.8908L23.658 25.9735L23.6936 26.3098L23.4436 26.3828ZM23.635 25.7573L23.8339 25.6997L23.5697 25.1582" fill="#00529C"/>
<path d="M15.6635 25.371C15.7621 25.0554 15.8504 24.8231 16.2265 24.9263C16.4278 24.9825 16.5526 25.0713 16.5467 25.3051C16.5457 25.3572 16.5285 25.4102 16.5173 25.4616L16.2832 25.3969C16.3138 25.2678 16.3333 25.1654 16.1742 25.1164C15.9904 25.066 15.9455 25.2889 15.9202 25.3851L15.8249 25.736C15.7947 25.8402 15.7584 26.0124 15.9202 26.0567C16.0539 26.0928 16.135 25.9615 16.1834 25.7699L16.0196 25.7265L16.0762 25.5235L16.4614 25.6474L16.2785 26.3236L16.1013 26.2755L16.1412 26.1325H16.1362C16.0546 26.2494 15.955 26.2617 15.8679 26.2449C15.4827 26.1408 15.5229 25.889 15.6148 25.5527" fill="#00529C"/>
<path d="M17.0972 25.9422L16.9812 26.4923L16.7201 26.4359L16.9983 25.1513L17.4434 25.2518C17.704 25.308 17.7826 25.424 17.7457 25.6628C17.7247 25.7998 17.6571 25.9475 17.4921 25.9356L17.4904 25.9333C17.6299 25.9822 17.6417 26.0525 17.6174 26.1741C17.6068 26.2258 17.5344 26.5398 17.5844 26.5905L17.5861 26.629L17.3159 26.5585C17.3047 26.4715 17.3429 26.315 17.358 26.2284C17.3733 26.1518 17.3976 26.0437 17.3198 26.0031C17.2589 25.9706 17.2362 25.9722 17.1674 25.9564L17.0972 25.9422ZM17.1417 25.7432L17.3175 25.7906C17.4243 25.806 17.4836 25.7507 17.5047 25.6217C17.5237 25.5034 17.4991 25.4572 17.4032 25.4343L17.2148 25.3961" fill="#00529C"/>
<path d="M18.7718 25.4383L19.0301 25.4683L18.9188 26.3713C18.8648 26.6576 18.7541 26.7828 18.4391 26.7436C18.1187 26.7032 18.0426 26.5572 18.062 26.2686L18.174 25.3663L18.4342 25.3961L18.3226 26.2782C18.3107 26.374 18.2886 26.516 18.459 26.5331C18.6102 26.5447 18.6445 26.4445 18.6615 26.32" fill="#00529C"/>
<path d="M19.3148 26.7931L19.3924 25.5017L19.8885 25.5232C20.123 25.5347 20.1844 25.7262 20.177 25.9089C20.1702 26.02 20.1355 26.1441 20.0387 26.2114C19.9593 26.2686 19.8573 26.2821 19.7626 26.2775L19.6009 26.2685L19.5686 26.8098L19.3148 26.7931ZM19.6083 26.0716L19.7397 26.0789C19.8465 26.0828 19.9172 26.0406 19.9264 25.8838C19.9316 25.7333 19.8747 25.7078 19.7364 25.7017L19.6322 25.6981" fill="#00529C"/>
<path d="M54.3056 14.6999L52.3338 18.2788C51.5896 17.6745 50.6808 17.2297 49.5213 17.2297C46.7773 17.2297 45.6627 19.2751 45.6627 20.7159C45.6627 21.7853 46.363 23.3633 48.8045 23.3633C49.8293 23.3633 51.2863 22.6503 51.7056 22.326L49.7554 26.4781C48.8259 26.6635 48.5205 26.7785 47.7336 26.8029C43.3637 26.9333 41.5978 24.2488 41.5991 21.5057C41.602 17.8794 44.8261 13.4692 50.1708 13.4692C50.4984 13.4692 50.899 13.5825 51.2415 13.708L51.5876 13.2653" fill="#00529C"/>
<path d="M62.4416 13.3776L63 26.3853H58.8446L58.8421 24.1544H56.0087L55.0761 26.3853H50.5695L55.281 17.0967L54.2186 17.0897L56.2372 13.3776H62.4416ZM58.8152 17.3569L57.2132 21.1404H58.8635" fill="#00529C"/>
<path d="M38.9757 13.3776C41.0335 13.3891 42.1964 14.5061 42.1964 16.1197C42.1964 17.6072 40.97 18.9239 39.6237 19.6048C41.0098 20.1143 41.1297 21.365 41.1297 22.2499C41.1297 24.3877 38.9845 26.3853 36.1961 26.3853H30.1151L32.4871 17.2261L31.5128 17.2204L33.5046 13.3776C33.5046 13.3776 37.3024 13.366 38.9757 13.3776ZM36.9568 18.6514C37.3825 18.6514 38.1341 18.5437 38.322 17.7199C38.5279 16.8256 37.8225 16.8016 37.4842 16.8016L36.2752 16.7963L35.8536 18.6515L36.9568 18.6514ZM35.2476 20.95L34.6909 23.0878H36.1144C36.6745 23.0878 37.4378 22.8099 37.6248 22.1142C37.8096 21.4165 37.276 20.95 36.7179 20.95" fill="#00529C"/>
</svg>
