<svg width="75" height="39" viewBox="0 0 75 39" fill="none" xmlns="http://www.w3.org/2000/svg">
<rect width="75" height="39" fill="white"/>
<path fill-rule="evenodd" clip-rule="evenodd" d="M12 17.2179L16.3025 22.6786L12 26.2656V17.2179Z" fill="#F15A23"/>
<path fill-rule="evenodd" clip-rule="evenodd" d="M13.7316 26.2656L16.9691 23.5408L19.2067 26.2656H13.7316Z" fill="#F15A23"/>
<path fill-rule="evenodd" clip-rule="evenodd" d="M12 14.296L13.1228 15.725L17.7393 21.529L19.2352 20.3304C19.2352 20.3304 17.9933 18.8594 17.1595 17.2179C15.5291 14.0086 16.6834 12.0104 16.6834 12.0104H12V14.296Z" fill="#F15A23"/>
<path fill-rule="evenodd" clip-rule="evenodd" d="M18.3973 22.425L19.9207 21.1589C19.9207 21.1589 21.3758 23.0859 23.0629 23.5408C25.2739 24.1368 26.2527 22.6786 26.2527 22.6786V26.2656H21.3966L22.4916 25.3131C22.4916 25.3131 21.9203 25.6963 20.5231 24.7226C19.6984 24.1478 18.3973 22.425 18.3973 22.425Z" fill="#F15A23"/>
<path fill-rule="evenodd" clip-rule="evenodd" d="M18.5374 12C18.5374 12 18.0514 12.6661 18.3974 14.296C18.7671 16.0381 20.2377 17.8819 20.2343 17.8406C20.2343 17.8406 20.3289 16.0098 21.3967 14.9354C23.6729 12.6453 26.2528 14.0086 26.2528 14.0086V12.0105L18.5374 12Z" fill="#F15A23"/>
<path fill-rule="evenodd" clip-rule="evenodd" d="M26.2528 16.4228C26.2528 16.4228 24.8133 15.1823 23.5619 15.1823C21.961 15.1823 21.0872 16.5729 21.0872 17.5816C21.0872 19.0508 21.7881 19.8672 22.4916 20.575C23.5027 21.5922 24.7327 22.6893 26.2528 21.8063C26.2528 20.1351 26.2528 16.4228 26.2528 16.4228Z" fill="#F15A23"/>
<path fill-rule="evenodd" clip-rule="evenodd" d="M42.6458 12.1494H46.0425C46.0425 12.1494 49.0515 16.7335 50.5303 18.6274C52.0091 20.5213 53.6009 22.6786 53.6009 22.6786C53.6009 22.6786 53.6009 16.4228 53.6009 13.176C53.6009 12.7656 52.5299 12.1494 52.5299 12.1494H56.4468C56.4468 12.1494 55.1616 12.6807 55.1616 13.176C55.1616 17.2179 55.1616 27 55.1616 27C55.1616 27 53.9283 26.3119 52.5299 24.677C50.9586 22.84 45.3693 15.4236 45.3693 15.4236C45.3693 15.4236 45.3693 22.425 45.3693 25.0295C45.3693 25.5215 46.4403 26.2656 46.4403 26.2656H42.6458C42.6458 26.2656 43.6862 25.5155 43.6862 25.0295C43.6862 21.529 43.6862 16.4228 43.6862 13.176C43.6862 12.7398 42.6458 12.1494 42.6458 12.1494Z" fill="#005E6A"/>
<path fill-rule="evenodd" clip-rule="evenodd" d="M58.6406 12.1494H63C63 12.1494 61.8294 12.7073 61.8294 13.176C61.8294 16.4228 61.8294 21.8063 61.8294 25.0295C61.8294 25.5418 63 26.2656 63 26.2656H58.6406C58.6406 26.2656 59.7304 25.5253 59.7304 25.0295C59.7304 21.1589 59.7304 16.4228 59.7304 13.176C59.7304 12.7254 58.6406 12.1494 58.6406 12.1494Z" fill="#005E6A"/>
<path fill-rule="evenodd" clip-rule="evenodd" d="M29.8198 12.1494C29.8198 12.1494 30.95 12.7164 30.95 13.176C30.95 16.4228 30.95 21.1589 30.95 25.0295C30.95 25.5334 29.8198 26.2656 29.8198 26.2656C29.8198 26.2656 35.4661 26.2656 36.2782 26.2656C36.6819 26.2656 41.2028 25.5219 41.2028 22.0151C41.2028 18.5083 37.691 18.18 37.691 18.18C37.691 18.18 39.8304 17.5816 39.8304 15.1823C39.8304 12.5962 36.6819 12.1494 36.2782 12.1494C35.4394 12.1494 29.8198 12.1494 29.8198 12.1494ZM33.2509 17.9476V13.5344C33.2509 13.5344 35.1229 13.5344 35.8746 13.5344C36.2782 13.5344 37.691 14.0086 37.691 15.7679C37.691 17.2179 36.2782 17.9476 35.8746 17.9476C34.9595 17.9476 33.2509 17.9476 33.2509 17.9476ZM33.2509 19.105C33.2509 19.105 35.8746 19.105 36.2782 19.105C36.6819 19.105 39.0634 19.7274 39.0634 21.8063C39.0634 23.9259 36.6819 24.677 36.2782 24.677C35.8746 24.677 33.2509 24.677 33.2509 24.677V19.105Z" fill="#005E6A"/>
</svg>
